<?xml version="1.0" encoding="utf-8"?>
<!-- Generator: Adobe Illustrator 24.1.2, SVG Export Plug-In . SVG Version: 6.00 Build 0)  -->
<svg version="1.1" id="Camada_1" xmlns="http://www.w3.org/2000/svg" xmlns:xlink="http://www.w3.org/1999/xlink" x="0px" y="0px"
	 viewBox="0 0 425.2 425.2" style="enable-background:new 0 0 425.2 425.2;" xml:space="preserve">
<style type="text/css">
	.st0{fill:##1d1d1b;}
</style>
<g>
	<path class="st0" d="M241.6,89.6c2.1-2.6,3.1-5.8,3.1-9.9v-8.6c0-4.1-1-7.4-3.1-9.8c-2.1-2.6-5-3.8-8.6-3.8h-6.8v35.9h6.8
		C236.6,93.3,239.5,92,241.6,89.6z"/>
	<path class="st0" d="M195.7,72.1c1.5-1.5,2.2-3.6,2.2-6.1c0-2.4-0.7-4.5-2.2-6.2c-1.4-1.6-3.6-2.4-6.5-2.4H179v17h10.3
		C192.1,74.4,194.2,73.7,195.7,72.1z"/>
	<path class="st0" d="M352.6,25.5c-1.1-1.1-2.6-1.7-4.2-1.7H76.8c-3.3,0-5.9,2.7-5.9,5.9v365.7c0,3.3,2.7,5.9,5.9,5.9h181.1
		c0.1,0,0.2,0,0.3,0c0.1,0,0.2,0,0.3,0c0.1,0,0.2,0,0.4-0.1c0.1,0,0.2,0,0.2,0c0.1,0,0.2,0,0.3-0.1c0.1,0,0.2,0,0.3-0.1
		c0.1,0,0.1,0,0.2-0.1c0.1,0,0.2-0.1,0.4-0.1c0,0,0.1,0,0.1-0.1c0.1-0.1,0.3-0.1,0.4-0.2c0,0,0.1,0,0.1-0.1c0.1-0.1,0.3-0.2,0.4-0.2
		c0,0,0.1-0.1,0.1-0.1c0.1-0.1,0.2-0.2,0.3-0.3c0.2-0.1,0.3-0.3,0.4-0.4l89.5-90.5c0.2-0.2,0.5-0.5,0.6-0.8c0.1-0.1,0.1-0.2,0.2-0.3
		c0.1-0.2,0.2-0.4,0.3-0.6c0-0.1,0.1-0.2,0.1-0.3c0.1-0.3,0.2-0.6,0.3-0.9c0,0,0-0.1,0-0.1c0.1-0.3,0.1-0.7,0.1-1c0,0,0-0.1,0-0.1
		l1-275.2C354.3,28.2,353.7,26.7,352.6,25.5z M263.2,49.4h35.4v8h-25.1v14.3H295v8h-21.6v21.5h-10.3V49.4z M215.8,49.4h17.6
		c6.3,0,11.5,2.1,15.6,6.2c4,4,6.1,9.2,6.1,15.6v8.5c0,6.4-2.1,11.6-6.1,15.6c-4,4.1-9.2,6-15.6,6h-17.6V49.4z M168.7,49.4h20.5
		c5.9,0,10.5,1.6,14,4.7c3.3,3,5.1,7,5.1,12c0,4.9-1.7,9-5.1,12c-3.5,2.9-8.1,4.4-14,4.4H179v18.9h-10.3V49.4z M148,92.3h10.3v9.1
		H148V92.3z M263.8,381v-30.6c0-28.8,10.5-39.5,38.9-39.5h30.4L263.8,381z M341.4,299h-38.7c-35.1,0-50.8,15.8-50.8,51.4v39.1H82.7
		V121.2h259.4L341.4,299z"/>
	<path class="st0" d="M143.7,323.4c1.7,1.4,3.8,2.1,6,2.1c5.5,0,11-4.2,17.4-13.3c4.6-6.6,9.7-15.6,14.9-26.8
		c16.7-7.3,37.4-14.1,55.1-17.8c9.8,9.5,18.7,14.4,26.3,14.4c5.5,0,10.4-2.6,13.8-7.6c3.6-5,4.4-9.7,2.4-13.5
		c-2.4-4.8-8.3-7.1-18.1-7.1c-5.8,0-12.8,0.8-21,2.4c-11.4-12.4-23.3-30.2-31.7-47.8c8.3-35.5,4.2-40.5,2.3-42.9
		c-2-2.6-4.7-6.6-7.8-6.6c-1.4,0-5,0.6-6.3,1c-3.7,1.3-5.5,4.1-7.1,7.7c-4.4,10.5,1.7,28.2,7.8,41.9c-5.3,21.4-14.2,46.9-23.6,67.8
		c-23.6,10.9-36.2,21.7-37.3,31.9C136.3,313,137.2,318.5,143.7,323.4z M262.8,264.5c5.5,0,6.5,0.8,7.3,1.2c-0.1,0.5-0.5,1.3-1.4,2.7
		c-2,2.7-6.1,2.7-7.6,2.7c-3.3,0-4.5-2-9.6-6C255.7,264.7,259.6,264.5,262.8,264.5z M201,170.3c0.3-0.1,6.6,7,0.7,20.3
		C192.7,181.4,200.4,170.5,201,170.3z M204.8,223.7c7,12.7,15.4,25,23.9,34.9c-13.3,3.1-27.4,7.7-40.5,12.7
		C194.4,256.2,200.4,239.3,204.8,223.7z M147.1,310.4c0.3-3.5,5.8-9.7,19.1-17.2c-10.1,18.9-15.6,21.3-16.5,21.7
		C146.9,312.5,147,311,147.1,310.4z"/>
</g>
<g>
</g>
<g>
</g>
<g>
</g>
<g>
</g>
<g>
</g>
<g>
</g>
</svg>
