<?xml version="1.0" encoding="utf-8"?>
<!-- Generator: Adobe Illustrator 24.1.2, SVG Export Plug-In . SVG Version: 6.00 Build 0)  -->
<svg version="1.1" id="Camada_1" xmlns="http://www.w3.org/2000/svg" xmlns:xlink="http://www.w3.org/1999/xlink" x="0px" y="0px"
	 viewBox="0 0 425.2 425.2" style="enable-background:new 0 0 425.2 425.2;" xml:space="preserve">
<style type="text/css">
	.st0{fill:##1d1d1b;}
</style>
<g>
	<path class="st0" d="M254.7,269.6h67.6c2.7,0,5-2.2,5-5v-34.7v-34.6v-34.7c0-2.7-2.2-5-5-5h-67.6h-84.4h-67.6c-2.7,0-4.9,2.2-4.9,5
		v34.7v34.6v34.7c0,2.7,2.2,5,4.9,5h67.6H254.7z M175.3,259.7v-24.8h74.5v24.8H175.3z M107.7,200.2h57.7v24.7h-57.7V200.2z
		 M175.3,200.2h74.5v24.7h-74.5V200.2z M317.4,224.9h-57.7v-24.7h57.7V224.9z M317.4,259.7h-57.7v-24.8h57.7V259.7z M317.4,190.3
		h-57.7v-24.8h57.7V190.3z M249.8,165.5v24.8h-74.5v-24.8H249.8z M107.7,165.5h57.7v24.8h-57.7V165.5z M107.7,234.8h57.7v24.8h-57.7
		V234.8z"/>
	<path class="st0" d="M352.6,25.6c-1.1-1.1-2.6-1.7-4.2-1.7H76.8c-3.3,0-5.9,2.7-5.9,5.9v365.6c0,3.3,2.7,5.9,5.9,5.9h181.1
		c0.2,0,0.3,0,0.5,0c0,0,0.1,0,0.1,0c0.6-0.1,1.1-0.2,1.7-0.4c0,0,0,0,0,0c0.2-0.1,0.3-0.1,0.5-0.2c0,0,0,0,0.1,0
		c0.1-0.1,0.3-0.2,0.4-0.2c0,0,0.1,0,0.1-0.1c0.1-0.1,0.2-0.2,0.4-0.3c0,0,0.1-0.1,0.1-0.1c0.2-0.1,0.3-0.3,0.4-0.4l89.5-90.4
		c0.2-0.3,0.5-0.5,0.7-0.8c0.1-0.1,0.1-0.2,0.2-0.3c0.1-0.2,0.2-0.4,0.3-0.7c0-0.1,0.1-0.2,0.1-0.3c0.1-0.3,0.2-0.6,0.3-0.9
		c0,0,0-0.1,0-0.1c0.1-0.3,0.1-0.7,0.1-1c0,0,0-0.1,0-0.1l1-275.2C354.3,28.2,353.7,26.7,352.6,25.6z M261.9,53H273l8.9,17.1l9-17.1
		h11.3l-14.3,24l15.1,24.5h-11.7L282,83.9l-9.2,17.5h-11.2L276.1,77L261.9,53z M220.7,86.4h9.3c0,2.9,0.8,5,2.7,6.3
		c1.7,1.4,4.2,2.1,7.3,2.1c2.7,0,4.6-0.6,6-1.6c1.4-1.2,2.1-2.6,2.1-4.4c0-1.9-0.7-3.4-2-4.4c-1.3-1.2-3.6-2.2-6.9-3.1
		c-5.7-1.7-10-3.7-12.9-5.9c-2.9-2.3-4.4-5.5-4.4-9.4c0-4,1.7-7.2,5.1-9.8c3.3-2.4,7.6-3.7,12.8-3.7c5.3,0,9.6,1.4,12.9,4.2
		c3.2,2.9,4.9,6.4,4.7,10.5v0.2h-9.3c0-2.2-0.7-4-2.2-5.4c-1.5-1.4-3.6-2.1-6.3-2.1c-2.5,0-4.5,0.6-5.9,1.7
		c-1.4,1.2-2.2,2.6-2.2,4.4c0,1.6,0.8,2.9,2.3,4c1.5,1,4.2,2.2,7.8,3.4c5.3,1.4,9.2,3.4,12,5.8c2.8,2.4,4,5.7,4,9.7
		c0,4.1-1.6,7.3-4.8,9.8c-3.2,2.4-7.5,3.6-12.8,3.6c-5.2,0-9.8-1.4-13.7-4.1c-3.8-2.8-5.8-6.5-5.6-11.4L220.7,86.4z M185.6,53h9.7
		v41h21.3v7.5h-31V53z M139.5,53h11.2l8.9,17.1l9-17.1h11.2l-14.2,24l15,24.5h-11.6l-9.2-17.5l-9.2,17.5h-11.3L153.8,77L139.5,53z
		 M122.2,92.3h10.3v9.1h-10.3V92.3z M266.8,377.9l-3,3v-30.5c0-28.8,10.5-39.5,38.9-39.5h30.4L266.8,377.9z M341.4,299.1h-38.7
		c-35.1,0-50.8,15.8-50.8,51.4v39H82.7V121.2h259.4L341.4,299.1z"/>
</g>
<g>
</g>
<g>
</g>
<g>
</g>
<g>
</g>
<g>
</g>
<g>
</g>
</svg>
